<mxfile host="65bd71144e">
    <diagram id="SLfue3OMqnGUAehlpC5w" name="Page-1">
        <mxGraphModel dx="1135" dy="787" grid="1" gridSize="10" guides="1" tooltips="1" connect="1" arrows="1" fold="1" page="1" pageScale="1" pageWidth="827" pageHeight="1169" math="0" shadow="0">
            <root>
                <mxCell id="0"/>
                <mxCell id="1" parent="0"/>
                <mxCell id="2" value="Interview Question ERD" style="rounded=0;whiteSpace=wrap;html=1;" vertex="1" parent="1">
                    <mxGeometry x="400" y="130" width="120" height="60" as="geometry"/>
                </mxCell>
                <mxCell id="3" value="Question" style="rounded=0;whiteSpace=wrap;html=1;" vertex="1" parent="1">
                    <mxGeometry x="195" y="180" width="160" height="60" as="geometry"/>
                </mxCell>
                <mxCell id="11" style="edgeStyle=none;html=1;exitX=1;exitY=0.5;exitDx=0;exitDy=0;entryX=0;entryY=0.5;entryDx=0;entryDy=0;endArrow=none;endFill=0;startArrow=ERmany;startFill=0;" edge="1" parent="1" source="4" target="6">
                    <mxGeometry relative="1" as="geometry"/>
                </mxCell>
                <mxCell id="4" value="Id&lt;br&gt;CompanyId&lt;br&gt;Type&lt;br&gt;Question&lt;br&gt;bool Multiple Options&lt;br&gt;ICollection&amp;lt;QuestionOptions&amp;gt;&lt;br&gt;ExplanationType&lt;br&gt;ICollection&amp;lt;JobOffer&amp;gt;" style="whiteSpace=wrap;html=1;aspect=fixed;" vertex="1" parent="1">
                    <mxGeometry x="195" y="240" width="160" height="160" as="geometry"/>
                </mxCell>
                <mxCell id="5" value="Company" style="rounded=0;whiteSpace=wrap;html=1;" vertex="1" parent="1">
                    <mxGeometry x="400" y="220" width="120" height="60" as="geometry"/>
                </mxCell>
                <mxCell id="6" value="Virtual ICollection Questions" style="whiteSpace=wrap;html=1;aspect=fixed;" vertex="1" parent="1">
                    <mxGeometry x="400" y="280" width="120" height="120" as="geometry"/>
                </mxCell>
                <mxCell id="14" style="edgeStyle=none;html=1;exitX=0.5;exitY=0;exitDx=0;exitDy=0;entryX=0.5;entryY=1;entryDx=0;entryDy=0;startArrow=ERmany;startFill=0;endArrow=ERmany;endFill=0;" edge="1" parent="1" source="7" target="4">
                    <mxGeometry relative="1" as="geometry">
                        <mxPoint x="265" y="410" as="sourcePoint"/>
                    </mxGeometry>
                </mxCell>
                <mxCell id="7" value="JobOffer" style="rounded=0;whiteSpace=wrap;html=1;" vertex="1" parent="1">
                    <mxGeometry x="210" y="430" width="130" height="60" as="geometry"/>
                </mxCell>
                <mxCell id="8" value="ICollection &amp;lt;Questions&amp;gt;&lt;br&gt;ICollection &amp;lt;Answers&amp;gt;" style="whiteSpace=wrap;html=1;aspect=fixed;" vertex="1" parent="1">
                    <mxGeometry x="210" y="490" width="130" height="130" as="geometry"/>
                </mxCell>
                <mxCell id="13" style="edgeStyle=none;html=1;exitX=0;exitY=0;exitDx=0;exitDy=0;entryX=1;entryY=1;entryDx=0;entryDy=0;startArrow=ERmany;startFill=0;endArrow=none;endFill=0;" edge="1" parent="1" source="9" target="4">
                    <mxGeometry relative="1" as="geometry"/>
                </mxCell>
                <mxCell id="9" value="Answer" style="rounded=0;whiteSpace=wrap;html=1;" vertex="1" parent="1">
                    <mxGeometry x="400" y="430" width="120" height="60" as="geometry"/>
                </mxCell>
                <mxCell id="12" style="edgeStyle=none;html=1;exitX=0;exitY=0.5;exitDx=0;exitDy=0;entryX=1;entryY=0.5;entryDx=0;entryDy=0;startArrow=ERmany;startFill=0;endArrow=none;endFill=0;" edge="1" parent="1" source="10" target="8">
                    <mxGeometry relative="1" as="geometry"/>
                </mxCell>
                <mxCell id="10" value="Id&lt;br&gt;QuestionId&lt;br&gt;JobOfferId&lt;br&gt;UserId&lt;br&gt;answer&lt;br&gt;Explanation" style="whiteSpace=wrap;html=1;aspect=fixed;" vertex="1" parent="1">
                    <mxGeometry x="400" y="490" width="120" height="120" as="geometry"/>
                </mxCell>
                <mxCell id="15" value="QuestionOptions" style="rounded=0;whiteSpace=wrap;html=1;" vertex="1" parent="1">
                    <mxGeometry x="30" y="210" width="120" height="60" as="geometry"/>
                </mxCell>
                <mxCell id="17" style="edgeStyle=none;html=1;exitX=1;exitY=0.5;exitDx=0;exitDy=0;entryX=0;entryY=0.5;entryDx=0;entryDy=0;startArrow=ERmany;startFill=0;endArrow=none;endFill=0;" edge="1" parent="1" source="16" target="4">
                    <mxGeometry relative="1" as="geometry"/>
                </mxCell>
                <mxCell id="16" value="Id&lt;br&gt;QuestionId&lt;br&gt;OptionShort?&lt;br&gt;OptionText" style="whiteSpace=wrap;html=1;aspect=fixed;" vertex="1" parent="1">
                    <mxGeometry x="30" y="270" width="120" height="120" as="geometry"/>
                </mxCell>
            </root>
        </mxGraphModel>
    </diagram>
</mxfile>